<svg width="14" height="25" fill="none" xmlns="http://www.w3.org/2000/svg"><path d="M8.648 25h-3.95c-.66 0-1.197-.544-1.197-1.213v-9.03H1.196c-.66 0-1.196-.544-1.196-1.213V9.675c0-.669.537-1.213 1.196-1.213h2.305V6.525c0-1.922.595-3.556 1.721-4.727C6.353.622 7.934 0 9.793 0l3.013.005A1.206 1.206 0 0114 1.218V4.81c0 .67-.537 1.213-1.196 1.213h-2.028c-.619 0-.776.126-.81.165-.056.064-.122.245-.122.743v1.531h2.808c.21 0 .416.053.591.153.38.214.616.621.616 1.06l-.002 3.87c0 .668-.536 1.212-1.196 1.212H9.844v9.03c0 .669-.537 1.213-1.196 1.213zm-3.7-1.466h3.45v-9.433c0-.447.359-.81.799-.81h3.215V9.928H9.198a.805.805 0 01-.799-.81V6.931c0-.572.057-1.223.484-1.713.515-.592 1.327-.66 1.893-.66h1.779V1.47l-2.762-.004c-2.988 0-4.845 1.938-4.845 5.059v2.593c0 .447-.358.81-.799.81H1.446v3.363h2.702c.44 0 .8.364.8.81v9.433zm7.855-22.063z" fill="#fff"/></svg>