<svg width="25" height="19" fill="none" xmlns="http://www.w3.org/2000/svg"><path d="M24.794.33a.908.908 0 00-1.012-.275L.849 8.3a1.278 1.278 0 00-.288 2.259l3.278 2.226c.317.215.726.238 1.066.06l7.11-3.73-5.542 4.116c-.26.193-.415.502-.415.825v3.813a1.078 1.078 0 001.67.89l2.49-1.642 2.45 1.66a1.296 1.296 0 001.823-.383L24.866 1.375A.9.9 0 0024.794.33zM13.34 17.469l-2.536-1.72a1.036 1.036 0 00-1.155-.008l-2.126 1.403V14.27L17.31 7c.437-.324.547-.915.256-1.374a1.03 1.03 0 00-1.358-.36L4.451 11.434 1.678 9.55l21.118-7.59-9.456 15.509z" fill="#fff"/></svg>