<svg width="26" height="26" fill="none" xmlns="http://www.w3.org/2000/svg"><path d="M21.64 3.632A12.15 12.15 0 0012.993.049h-.002c-1.616 0-3.19.313-4.68.93a12.17 12.17 0 00-3.968 2.653 12.152 12.152 0 00-3.582 8.65c0 1.948.47 3.884 1.36 5.61L.066 23.764c-.145.414-.043.864.268 1.175a1.124 1.124 0 001.175.268l5.874-2.056a12.268 12.268 0 005.61 1.361 12.15 12.15 0 008.649-3.583 12.152 12.152 0 003.583-8.649c0-3.267-1.273-6.339-3.583-8.65zm-1.045 16.252a10.681 10.681 0 01-7.603 3.15 10.78 10.78 0 01-5.048-1.257 1.14 1.14 0 00-.909-.07L1.7 23.573l1.868-5.337a1.14 1.14 0 00-.07-.908A10.78 10.78 0 012.24 12.28c0-2.872 1.119-5.572 3.15-7.603 2.03-2.03 4.73-3.15 7.602-3.15 2.873 0 5.573 1.119 7.604 3.15a10.681 10.681 0 013.15 7.603c0 2.872-1.12 5.573-3.15 7.603z" fill="#fff"/><path d="M17.537 13.374a1.445 1.445 0 00-2.04 0l-.616.615a8.958 8.958 0 01-3.598-3.597l.616-.616a1.445 1.445 0 000-2.04l-1.659-1.66a1.445 1.445 0 00-2.04 0L6.872 7.405c-.76.76-.798 2.066-.107 3.678.6 1.4 1.698 2.94 3.092 4.333 1.394 1.394 2.932 2.492 4.332 3.092.766.328 1.463.492 2.065.492.666 0 1.215-.2 1.614-.599l1.327-1.327c.273-.272.423-.635.423-1.02 0-.386-.15-.748-.423-1.02l-1.659-1.66zm-.714 3.98c-.217.217-.884.293-2.05-.207-1.231-.527-2.605-1.514-3.87-2.778-1.263-1.264-2.25-2.638-2.777-3.87-.5-1.165-.424-1.832-.207-2.05l1.301-1.3 1.607 1.607-.77.77a1.129 1.129 0 00-.21 1.315 10.436 10.436 0 004.585 4.584c.438.223.966.14 1.315-.21l.77-.77 1.607 1.608-1.3 1.301z" fill="#fff"/></svg>