<svg width="197" height="53" fill="none" xmlns="http://www.w3.org/2000/svg"><path d="M6.876 13.84H10.8L17.028 43h-3.852l-1.332-7.344h-5.94L4.5 43H.684l6.192-29.16zm4.428 18.9L8.856 19.6 6.444 32.74h4.86zm16.207 10.584c-2.04 0-3.636-.408-4.788-1.224-1.128-.816-1.908-1.956-2.34-3.42-.432-1.464-.648-3.3-.648-5.508V13.84h3.888v19.512c0 2.208.252 3.888.756 5.04.528 1.152 1.572 1.728 3.132 1.728s2.592-.576 3.096-1.728c.528-1.152.792-2.832.792-5.04V13.84h3.852v19.332c0 2.208-.216 4.044-.648 5.508-.432 1.464-1.212 2.604-2.34 3.42-1.128.816-2.712 1.224-4.752 1.224zm15.227-26.46h-4.932V13.84h13.788v3.024h-4.788V43h-4.068V16.864zm19.119 26.46c-2.856 0-4.908-.804-6.156-2.412-1.224-1.632-1.836-3.984-1.836-7.056V22.804c0-3.024.624-5.316 1.872-6.876 1.248-1.56 3.288-2.34 6.12-2.34 2.832 0 4.86.792 6.084 2.376 1.248 1.56 1.872 3.84 1.872 6.84v11.088c0 3.024-.624 5.352-1.872 6.984-1.248 1.632-3.276 2.448-6.084 2.448zm0-3.204c1.512 0 2.532-.444 3.06-1.332.528-.888.792-2.232.792-4.032v-12.78c0-1.776-.264-3.084-.792-3.924-.528-.864-1.548-1.296-3.06-1.296-1.536 0-2.568.432-3.096 1.296-.528.84-.792 2.148-.792 3.924v12.78c0 1.8.264 3.144.792 4.032.528.888 1.56 1.332 3.096 1.332zm20.18-26.28h11.304v3.024h-7.235v9.648h5.868v2.88h-5.868v10.692h7.308V43H82.037V13.84zm18.945 13.896L95.006 13.84h3.78l4.428 10.296 4.032-10.296h3.78l-6.12 14.22L111.314 43h-3.78l-4.752-10.98L98.678 43h-3.78l6.084-15.264zm13.083-13.896h7.236c2.52 0 4.344.684 5.472 2.052 1.152 1.368 1.728 3.372 1.728 6.012 0 2.376-.612 4.224-1.836 5.544-1.224 1.32-3 1.98-5.328 1.98h-3.204V43h-4.068V13.84zm5.94 12.672c1.2 0 2.124-.132 2.772-.396a2.524 2.524 0 001.44-1.368c.288-.648.432-1.584.432-2.808 0-1.488-.108-2.58-.324-3.276-.216-.696-.648-1.188-1.296-1.476-.624-.288-1.62-.432-2.988-.432h-1.908v9.756h1.872zm11.357-12.672h5.868c2.952 0 5.112.612 6.48 1.836 1.392 1.2 2.088 3.168 2.088 5.904 0 3.744-1.2 6.012-3.6 6.804L146.338 43h-3.924l-3.816-13.68h-3.168V43h-4.068V13.84zm5.616 12.564c1.752 0 3-.348 3.744-1.044.768-.696 1.152-1.956 1.152-3.78 0-1.2-.132-2.136-.396-2.808a2.638 2.638 0 00-1.404-1.512c-.672-.336-1.62-.504-2.844-.504h-1.8v9.648h1.548zM150.03 13.84h11.304v3.024h-7.236v9.648h5.868v2.88h-5.868v10.692h7.308V43H150.03V13.84zm21.536 29.484c-2.448 0-4.32-.756-5.616-2.268-1.272-1.512-1.98-3.588-2.124-6.228l3.6-.972c.12 1.872.48 3.384 1.08 4.536.624 1.152 1.644 1.728 3.06 1.728 1.056 0 1.848-.288 2.376-.864.552-.6.828-1.452.828-2.556 0-1.2-.252-2.196-.756-2.988-.504-.792-1.308-1.668-2.412-2.628l-4.896-4.32c-.984-.864-1.704-1.788-2.16-2.772-.432-1.008-.648-2.232-.648-3.672 0-2.136.612-3.792 1.836-4.968 1.224-1.176 2.892-1.764 5.004-1.764 2.304 0 4.044.612 5.22 1.836 1.176 1.224 1.884 3.12 2.124 5.688l-3.456.936c-.12-1.704-.456-3.012-1.008-3.924-.528-.936-1.488-1.404-2.88-1.404-1.032 0-1.824.276-2.376.828-.552.528-.828 1.32-.828 2.376 0 .864.144 1.596.432 2.196.288.576.78 1.164 1.476 1.764l4.932 4.32c1.272 1.128 2.28 2.352 3.024 3.672.768 1.32 1.152 2.82 1.152 4.5 0 2.136-.648 3.828-1.944 5.076-1.296 1.248-2.976 1.872-5.04 1.872zm17.016 0c-2.448 0-4.32-.756-5.616-2.268-1.272-1.512-1.98-3.588-2.124-6.228l3.6-.972c.12 1.872.48 3.384 1.08 4.536.624 1.152 1.644 1.728 3.06 1.728 1.056 0 1.848-.288 2.376-.864.552-.6.828-1.452.828-2.556 0-1.2-.252-2.196-.756-2.988-.504-.792-1.308-1.668-2.412-2.628l-4.896-4.32c-.984-.864-1.704-1.788-2.16-2.772-.432-1.008-.648-2.232-.648-3.672 0-2.136.612-3.792 1.836-4.968 1.224-1.176 2.892-1.764 5.004-1.764 2.304 0 4.044.612 5.22 1.836 1.176 1.224 1.884 3.12 2.124 5.688l-3.456.936c-.12-1.704-.456-3.012-1.008-3.924-.528-.936-1.488-1.404-2.88-1.404-1.032 0-1.824.276-2.376.828-.552.528-.828 1.32-.828 2.376 0 .864.144 1.596.432 2.196.288.576.78 1.164 1.476 1.764l4.932 4.32c1.272 1.128 2.28 2.352 3.024 3.672.768 1.32 1.152 2.82 1.152 4.5 0 2.136-.648 3.828-1.944 5.076-1.296 1.248-2.976 1.872-5.04 1.872z" fill="#fff"/><path d="M0 5.5h80m-80 43h80" stroke="#fff" stroke-width="3"/></svg>